<mxfile>
    <diagram id="utaHkir9cNiWWHMlUNL8" name="Page-1">
        <mxGraphModel dx="2038" dy="1900" grid="1" gridSize="10" guides="1" tooltips="1" connect="1" arrows="1" fold="1" page="1" pageScale="1" pageWidth="850" pageHeight="1100" math="0" shadow="0">
            <root>
                <mxCell id="0"/>
                <mxCell id="1" parent="0"/>
                <mxCell id="2rcn7Dy2VV2zYY0n1cLn-5" value="Simulation" style="swimlane;fontStyle=1;align=center;verticalAlign=top;childLayout=stackLayout;horizontal=1;startSize=26;horizontalStack=0;resizeParent=1;resizeParentMax=0;resizeLast=0;collapsible=1;marginBottom=0;" parent="1" vertex="1">
                    <mxGeometry x="140" y="20" width="220" height="260" as="geometry"/>
                </mxCell>
                <mxCell id="2rcn7Dy2VV2zYY0n1cLn-6" value="+ params: Params&#10;+ tides: Tides&#10;+ runs: int&#10;+ pos: int&#10;+ results: SimulationResults&#10;+ inundations: list&#10;+ status: int" style="text;strokeColor=none;fillColor=none;align=left;verticalAlign=top;spacingLeft=4;spacingRight=4;overflow=hidden;rotatable=0;points=[[0,0.5],[1,0.5]];portConstraint=eastwest;" parent="2rcn7Dy2VV2zYY0n1cLn-5" vertex="1">
                    <mxGeometry y="26" width="220" height="134" as="geometry"/>
                </mxCell>
                <mxCell id="2rcn7Dy2VV2zYY0n1cLn-7" value="" style="line;strokeWidth=1;fillColor=none;align=left;verticalAlign=middle;spacingTop=-1;spacingLeft=3;spacingRight=3;rotatable=0;labelPosition=right;points=[];portConstraint=eastwest;" parent="2rcn7Dy2VV2zYY0n1cLn-5" vertex="1">
                    <mxGeometry y="160" width="220" height="8" as="geometry"/>
                </mxCell>
                <mxCell id="2rcn7Dy2VV2zYY0n1cLn-8" value="+ update_land(inundation)&#10;+ update_results(inundation)&#10;+ update()&#10;+ simulate()&#10;+ print_results()" style="text;strokeColor=none;fillColor=none;align=left;verticalAlign=top;spacingLeft=4;spacingRight=4;overflow=hidden;rotatable=0;points=[[0,0.5],[1,0.5]];portConstraint=eastwest;" parent="2rcn7Dy2VV2zYY0n1cLn-5" vertex="1">
                    <mxGeometry y="168" width="220" height="92" as="geometry"/>
                </mxCell>
                <mxCell id="2rcn7Dy2VV2zYY0n1cLn-9" value="Inundation" style="swimlane;fontStyle=1;align=center;verticalAlign=top;childLayout=stackLayout;horizontal=1;startSize=26;horizontalStack=0;resizeParent=1;resizeParentMax=0;resizeLast=0;collapsible=1;marginBottom=0;" parent="1" vertex="1">
                    <mxGeometry x="100" y="360" width="360" height="280" as="geometry"/>
                </mxCell>
                <mxCell id="2rcn7Dy2VV2zYY0n1cLn-10" value="+ index: ndarray&#10;+ tide_elev: ndarray&#10;+ land_elev_init: float&#10;+ params: Params or None&#10;+ result: InundationResult or None" style="text;strokeColor=none;fillColor=none;align=left;verticalAlign=top;spacingLeft=4;spacingRight=4;overflow=hidden;rotatable=0;points=[[0,0.5],[1,0.5]];portConstraint=eastwest;" parent="2rcn7Dy2VV2zYY0n1cLn-9" vertex="1">
                    <mxGeometry y="26" width="360" height="114" as="geometry"/>
                </mxCell>
                <mxCell id="2rcn7Dy2VV2zYY0n1cLn-11" value="" style="line;strokeWidth=1;fillColor=none;align=left;verticalAlign=middle;spacingTop=-1;spacingLeft=3;spacingRight=3;rotatable=0;labelPosition=right;points=[];portConstraint=eastwest;" parent="2rcn7Dy2VV2zYY0n1cLn-9" vertex="1">
                    <mxGeometry y="140" width="360" height="8" as="geometry"/>
                </mxCell>
                <mxCell id="2rcn7Dy2VV2zYY0n1cLn-12" value="+ tide_elev_func(time):Â InterpolatedUnivariateSpline&#10;+ pos_start(): int&#10;+ pos_slack(): int&#10;+ pos_end(): int&#10;+ period(): int&#10;+ tide_elev_slack: float&#10;+ solver_args: namedtupled&#10;+ aggrade(): InundationResult" style="text;strokeColor=none;fillColor=none;align=left;verticalAlign=top;spacingLeft=4;spacingRight=4;overflow=hidden;rotatable=0;points=[[0,0.5],[1,0.5]];portConstraint=eastwest;" parent="2rcn7Dy2VV2zYY0n1cLn-9" vertex="1">
                    <mxGeometry y="148" width="360" height="132" as="geometry"/>
                </mxCell>
                <mxCell id="2rcn7Dy2VV2zYY0n1cLn-30" value="Tides" style="swimlane;fontStyle=1;align=center;verticalAlign=top;childLayout=stackLayout;horizontal=1;startSize=26;horizontalStack=0;resizeParent=1;resizeParentMax=0;resizeLast=0;collapsible=1;marginBottom=0;" parent="1" vertex="1">
                    <mxGeometry x="120" y="-290" width="240" height="200" as="geometry"/>
                </mxCell>
                <mxCell id="2rcn7Dy2VV2zYY0n1cLn-31" value="+ tide_elev: ndarray&#10;+ land_elev: ndarray&#10;+ index: ndarray&#10;+ timestep: int" style="text;strokeColor=none;fillColor=none;align=left;verticalAlign=top;spacingLeft=4;spacingRight=4;overflow=hidden;rotatable=0;points=[[0,0.5],[1,0.5]];portConstraint=eastwest;" parent="2rcn7Dy2VV2zYY0n1cLn-30" vertex="1">
                    <mxGeometry y="26" width="240" height="84" as="geometry"/>
                </mxCell>
                <mxCell id="2rcn7Dy2VV2zYY0n1cLn-32" value="" style="line;strokeWidth=1;fillColor=none;align=left;verticalAlign=middle;spacingTop=-1;spacingLeft=3;spacingRight=3;rotatable=0;labelPosition=right;points=[];portConstraint=eastwest;" parent="2rcn7Dy2VV2zYY0n1cLn-30" vertex="1">
                    <mxGeometry y="110" width="240" height="8" as="geometry"/>
                </mxCell>
                <mxCell id="2rcn7Dy2VV2zYY0n1cLn-33" value="+ depth(): ndarray&#10;+ zero_crossings(): ndarray&#10;+ find_inundation(pos): Inundation&#10;+ plot()" style="text;strokeColor=none;fillColor=none;align=left;verticalAlign=top;spacingLeft=4;spacingRight=4;overflow=hidden;rotatable=0;points=[[0,0.5],[1,0.5]];portConstraint=eastwest;" parent="2rcn7Dy2VV2zYY0n1cLn-30" vertex="1">
                    <mxGeometry y="118" width="240" height="82" as="geometry"/>
                </mxCell>
                <mxCell id="ZjqNjTbliwN7awZwp2EU-1" value="InundationResult" style="swimlane;fontStyle=1;align=center;verticalAlign=top;childLayout=stackLayout;horizontal=1;startSize=26;horizontalStack=0;resizeParent=1;resizeParentMax=0;resizeLast=0;collapsible=1;marginBottom=0;" parent="1" vertex="1">
                    <mxGeometry x="110" y="820" width="210" height="220" as="geometry"/>
                </mxCell>
                <mxCell id="ZjqNjTbliwN7awZwp2EU-2" value="+ flood: InundationOdeResult&#10;+ ebb: InundationOdeResult" style="text;strokeColor=none;fillColor=none;align=left;verticalAlign=top;spacingLeft=4;spacingRight=4;overflow=hidden;rotatable=0;points=[[0,0.5],[1,0.5]];portConstraint=eastwest;" parent="ZjqNjTbliwN7awZwp2EU-1" vertex="1">
                    <mxGeometry y="26" width="210" height="54" as="geometry"/>
                </mxCell>
                <mxCell id="ZjqNjTbliwN7awZwp2EU-3" value="" style="line;strokeWidth=1;fillColor=none;align=left;verticalAlign=middle;spacingTop=-1;spacingLeft=3;spacingRight=3;rotatable=0;labelPosition=right;points=[];portConstraint=eastwest;" parent="ZjqNjTbliwN7awZwp2EU-1" vertex="1">
                    <mxGeometry y="80" width="210" height="8" as="geometry"/>
                </mxCell>
                <mxCell id="ZjqNjTbliwN7awZwp2EU-4" value="+ time(): ndarray&#10;+ slack_time(): float&#10;+ tide_elev(): ndarray&#10;+ conc(): ndarray&#10;+ land_elev(): ndarray&#10;+ aggradation(): float&#10;+ degradation(): float&#10;+ plot()" style="text;strokeColor=none;fillColor=none;align=left;verticalAlign=top;spacingLeft=4;spacingRight=4;overflow=hidden;rotatable=0;points=[[0,0.5],[1,0.5]];portConstraint=eastwest;" parent="ZjqNjTbliwN7awZwp2EU-1" vertex="1">
                    <mxGeometry y="88" width="210" height="132" as="geometry"/>
                </mxCell>
                <mxCell id="W9CftdfS8jbNJxEW55Y1-1" value="Params" style="swimlane;fontStyle=1;align=center;verticalAlign=top;childLayout=stackLayout;horizontal=1;startSize=26;horizontalStack=0;resizeParent=1;resizeParentMax=0;resizeLast=0;collapsible=1;marginBottom=0;" parent="1" vertex="1">
                    <mxGeometry x="-220" y="-50" width="210" height="260" as="geometry"/>
                </mxCell>
                <mxCell id="W9CftdfS8jbNJxEW55Y1-2" value="+ timestep: int&#10;+ conc_init: float&#10;+ conc_bound: float&#10;+ grain_diam: float&#10;+ grain_dens: float&#10;+ bulk_dens: float&#10;+ org_rate: float&#10;+ comp_rate: float&#10;+ sub_rate: float&#10;+ slr: float&#10;+ method: str&#10;+ min_depth: float" style="text;strokeColor=none;fillColor=none;align=left;verticalAlign=top;spacingLeft=4;spacingRight=4;overflow=hidden;rotatable=0;points=[[0,0.5],[1,0.5]];portConstraint=eastwest;" parent="W9CftdfS8jbNJxEW55Y1-1" vertex="1">
                    <mxGeometry y="26" width="210" height="174" as="geometry"/>
                </mxCell>
                <mxCell id="W9CftdfS8jbNJxEW55Y1-3" value="" style="line;strokeWidth=1;fillColor=none;align=left;verticalAlign=middle;spacingTop=-1;spacingLeft=3;spacingRight=3;rotatable=0;labelPosition=right;points=[];portConstraint=eastwest;" parent="W9CftdfS8jbNJxEW55Y1-1" vertex="1">
                    <mxGeometry y="200" width="210" height="8" as="geometry"/>
                </mxCell>
                <mxCell id="W9CftdfS8jbNJxEW55Y1-4" value="+ settle_rate(): float&#10;+ linear_rate_sec(): float" style="text;strokeColor=none;fillColor=none;align=left;verticalAlign=top;spacingLeft=4;spacingRight=4;overflow=hidden;rotatable=0;points=[[0,0.5],[1,0.5]];portConstraint=eastwest;" parent="W9CftdfS8jbNJxEW55Y1-1" vertex="1">
                    <mxGeometry y="208" width="210" height="52" as="geometry"/>
                </mxCell>
                <mxCell id="W9CftdfS8jbNJxEW55Y1-9" value="SimulationResults" style="swimlane;fontStyle=1;align=center;verticalAlign=top;childLayout=stackLayout;horizontal=1;startSize=26;horizontalStack=0;resizeParent=1;resizeParentMax=0;resizeLast=0;collapsible=1;marginBottom=0;" parent="1" vertex="1">
                    <mxGeometry x="500" y="-27" width="310" height="280" as="geometry"/>
                </mxCell>
                <mxCell id="W9CftdfS8jbNJxEW55Y1-10" value="+ data: pd.DataFrame&#10;+ aggradation: float&#10;+ degradation: float&#10;+ start_time: float&#10;+ end_time: float or None" style="text;strokeColor=none;fillColor=none;align=left;verticalAlign=top;spacingLeft=4;spacingRight=4;overflow=hidden;rotatable=0;points=[[0,0.5],[1,0.5]];portConstraint=eastwest;" parent="W9CftdfS8jbNJxEW55Y1-9" vertex="1">
                    <mxGeometry y="26" width="310" height="134" as="geometry"/>
                </mxCell>
                <mxCell id="W9CftdfS8jbNJxEW55Y1-11" value="" style="line;strokeWidth=1;fillColor=none;align=left;verticalAlign=middle;spacingTop=-1;spacingLeft=3;spacingRight=3;rotatable=0;labelPosition=right;points=[];portConstraint=eastwest;" parent="W9CftdfS8jbNJxEW55Y1-9" vertex="1">
                    <mxGeometry y="160" width="310" height="8" as="geometry"/>
                </mxCell>
                <mxCell id="W9CftdfS8jbNJxEW55Y1-12" value="+ runtime(): float&#10;+ land_elev_change(): float&#10;+ append(index, tide_elev, land_elev): pd.DataFrame&#10;+ plot()" style="text;strokeColor=none;fillColor=none;align=left;verticalAlign=top;spacingLeft=4;spacingRight=4;overflow=hidden;rotatable=0;points=[[0,0.5],[1,0.5]];portConstraint=eastwest;" parent="W9CftdfS8jbNJxEW55Y1-9" vertex="1">
                    <mxGeometry y="168" width="310" height="112" as="geometry"/>
                </mxCell>
                <mxCell id="2" value="LimbResult" style="swimlane;fontStyle=1;align=center;verticalAlign=top;childLayout=stackLayout;horizontal=1;startSize=26;horizontalStack=0;resizeParent=1;resizeParentMax=0;resizeLast=0;collapsible=1;marginBottom=0;" vertex="1" parent="1">
                    <mxGeometry x="600" y="710" width="210" height="288" as="geometry"/>
                </mxCell>
                <mxCell id="3" value="+ t: ndarray&#10;+ y: ndarray&#10;+ sol: OdeSolution or None&#10;+ t_events: list of ndarray or None&#10;+ y_events: list of ndarray or None&#10;+ nfev: int&#10;+ njev: int&#10;+ nlu: int&#10;+ status: int&#10;+ message: str&#10;+ success: bool&#10;+ aggradation: float or None&#10;+ degradation: float or None" style="text;strokeColor=none;fillColor=none;align=left;verticalAlign=top;spacingLeft=4;spacingRight=4;overflow=hidden;rotatable=0;points=[[0,0.5],[1,0.5]];portConstraint=eastwest;" vertex="1" parent="2">
                    <mxGeometry y="26" width="210" height="194" as="geometry"/>
                </mxCell>
                <mxCell id="4" value="" style="line;strokeWidth=1;fillColor=none;align=left;verticalAlign=middle;spacingTop=-1;spacingLeft=3;spacingRight=3;rotatable=0;labelPosition=right;points=[];portConstraint=eastwest;" vertex="1" parent="2">
                    <mxGeometry y="220" width="210" height="8" as="geometry"/>
                </mxCell>
                <mxCell id="5" value="+ plot()" style="text;strokeColor=none;fillColor=none;align=left;verticalAlign=top;spacingLeft=4;spacingRight=4;overflow=hidden;rotatable=0;points=[[0,0.5],[1,0.5]];portConstraint=eastwest;" vertex="1" parent="2">
                    <mxGeometry y="228" width="210" height="60" as="geometry"/>
                </mxCell>
                <mxCell id="W9CftdfS8jbNJxEW55Y1-5" value="OdeResult" style="swimlane;fontStyle=1;align=center;verticalAlign=top;childLayout=stackLayout;horizontal=1;startSize=26;horizontalStack=0;resizeParent=1;resizeParentMax=0;resizeLast=0;collapsible=1;marginBottom=0;" parent="1" vertex="1">
                    <mxGeometry x="606" y="1110" width="210" height="268" as="geometry"/>
                </mxCell>
                <mxCell id="W9CftdfS8jbNJxEW55Y1-6" value="+ t: ndarray&#10;+ y: ndarray&#10;+ sol: OdeSolution or None&#10;+ t_events: list of ndarray or None&#10;+ y_events: list of ndarray or None&#10;+ nfev: int&#10;+ njev: int&#10;+ nlu: int&#10;+ status: int&#10;+ message: str&#10;+ success: bool" style="text;strokeColor=none;fillColor=none;align=left;verticalAlign=top;spacingLeft=4;spacingRight=4;overflow=hidden;rotatable=0;points=[[0,0.5],[1,0.5]];portConstraint=eastwest;" parent="W9CftdfS8jbNJxEW55Y1-5" vertex="1">
                    <mxGeometry y="26" width="210" height="174" as="geometry"/>
                </mxCell>
                <mxCell id="W9CftdfS8jbNJxEW55Y1-7" value="" style="line;strokeWidth=1;fillColor=none;align=left;verticalAlign=middle;spacingTop=-1;spacingLeft=3;spacingRight=3;rotatable=0;labelPosition=right;points=[];portConstraint=eastwest;" parent="W9CftdfS8jbNJxEW55Y1-5" vertex="1">
                    <mxGeometry y="200" width="210" height="8" as="geometry"/>
                </mxCell>
                <mxCell id="W9CftdfS8jbNJxEW55Y1-8" value="Â " style="text;strokeColor=none;fillColor=none;align=left;verticalAlign=top;spacingLeft=4;spacingRight=4;overflow=hidden;rotatable=0;points=[[0,0.5],[1,0.5]];portConstraint=eastwest;" parent="W9CftdfS8jbNJxEW55Y1-5" vertex="1">
                    <mxGeometry y="208" width="210" height="60" as="geometry"/>
                </mxCell>
                <mxCell id="21" value="Extends" style="endArrow=block;endSize=16;endFill=0;html=1;entryX=0.5;entryY=0;entryDx=0;entryDy=0;exitX=0.519;exitY=1.033;exitDx=0;exitDy=0;exitPerimeter=0;" edge="1" parent="1" source="5" target="W9CftdfS8jbNJxEW55Y1-5">
                    <mxGeometry width="160" relative="1" as="geometry">
                        <mxPoint x="620" y="1080" as="sourcePoint"/>
                        <mxPoint x="780" y="1080" as="targetPoint"/>
                    </mxGeometry>
                </mxCell>
                <mxCell id="22" value="1..2" style="endArrow=open;html=1;endSize=12;startArrow=diamondThin;startSize=14;startFill=1;edgeStyle=orthogonalEdgeStyle;align=left;verticalAlign=bottom;exitX=1;exitY=0.258;exitDx=0;exitDy=0;exitPerimeter=0;entryX=0;entryY=0.5;entryDx=0;entryDy=0;" edge="1" parent="1" source="ZjqNjTbliwN7awZwp2EU-4" target="3">
                    <mxGeometry x="-1" y="3" relative="1" as="geometry">
                        <mxPoint x="500" y="880" as="sourcePoint"/>
                        <mxPoint x="580" y="850" as="targetPoint"/>
                    </mxGeometry>
                </mxCell>
                <mxCell id="24" value="1" style="endArrow=open;html=1;endSize=12;startArrow=diamondThin;startSize=14;startFill=0;edgeStyle=orthogonalEdgeStyle;align=left;verticalAlign=bottom;entryX=0.5;entryY=0;entryDx=0;entryDy=0;exitX=0.556;exitY=1.004;exitDx=0;exitDy=0;exitPerimeter=0;" edge="1" parent="1" source="2rcn7Dy2VV2zYY0n1cLn-12" target="ZjqNjTbliwN7awZwp2EU-1">
                    <mxGeometry x="-1" y="12" relative="1" as="geometry">
                        <mxPoint x="300" y="690" as="sourcePoint"/>
                        <mxPoint x="450" y="740" as="targetPoint"/>
                        <mxPoint x="-7" y="-11" as="offset"/>
                    </mxGeometry>
                </mxCell>
                <mxCell id="25" value="1" style="endArrow=open;html=1;endSize=12;startArrow=diamondThin;startSize=14;startFill=1;edgeStyle=orthogonalEdgeStyle;align=left;verticalAlign=bottom;exitX=1;exitY=0.5;exitDx=0;exitDy=0;entryX=0;entryY=0.5;entryDx=0;entryDy=0;" edge="1" parent="1" source="2rcn7Dy2VV2zYY0n1cLn-6" target="W9CftdfS8jbNJxEW55Y1-10">
                    <mxGeometry x="-1" y="3" relative="1" as="geometry">
                        <mxPoint x="450" y="120" as="sourcePoint"/>
                        <mxPoint x="610" y="120" as="targetPoint"/>
                    </mxGeometry>
                </mxCell>
                <mxCell id="26" value="1" style="endArrow=open;html=1;endSize=12;startArrow=diamondThin;startSize=14;startFill=0;edgeStyle=orthogonalEdgeStyle;align=left;verticalAlign=bottom;exitX=-0.029;exitY=0.45;exitDx=0;exitDy=0;exitPerimeter=0;entryX=1;entryY=0.5;entryDx=0;entryDy=0;" edge="1" parent="1" source="2rcn7Dy2VV2zYY0n1cLn-6" target="W9CftdfS8jbNJxEW55Y1-2">
                    <mxGeometry x="-1" y="3" relative="1" as="geometry">
                        <mxPoint x="50" y="240" as="sourcePoint"/>
                        <mxPoint x="210" y="240" as="targetPoint"/>
                    </mxGeometry>
                </mxCell>
                <mxCell id="27" value="1" style="endArrow=open;html=1;endSize=12;startArrow=diamondThin;startSize=14;startFill=0;edgeStyle=orthogonalEdgeStyle;align=left;verticalAlign=bottom;exitX=0.5;exitY=0;exitDx=0;exitDy=0;entryX=0.515;entryY=0.996;entryDx=0;entryDy=0;entryPerimeter=0;" edge="1" parent="1" source="2rcn7Dy2VV2zYY0n1cLn-5" target="2rcn7Dy2VV2zYY0n1cLn-33">
                    <mxGeometry x="-1" y="3" relative="1" as="geometry">
                        <mxPoint x="143.62000000000012" y="116.30000000000018" as="sourcePoint"/>
                        <mxPoint y="73" as="targetPoint"/>
                    </mxGeometry>
                </mxCell>
                <mxCell id="28" value="*" style="endArrow=open;html=1;endSize=12;startArrow=diamondThin;startSize=14;startFill=0;edgeStyle=orthogonalEdgeStyle;align=left;verticalAlign=bottom;exitX=0.5;exitY=1;exitDx=0;exitDy=0;entryX=0.5;entryY=0;entryDx=0;entryDy=0;" edge="1" parent="1" source="2rcn7Dy2VV2zYY0n1cLn-5" target="2rcn7Dy2VV2zYY0n1cLn-9">
                    <mxGeometry x="-1" y="3" relative="1" as="geometry">
                        <mxPoint x="280" y="360" as="sourcePoint"/>
                        <mxPoint x="440" y="360" as="targetPoint"/>
                    </mxGeometry>
                </mxCell>
                <mxCell id="29" value="1" style="endArrow=open;html=1;endSize=12;startArrow=diamondThin;startSize=14;startFill=0;edgeStyle=orthogonalEdgeStyle;align=left;verticalAlign=bottom;exitX=-0.006;exitY=0.443;exitDx=0;exitDy=0;exitPerimeter=0;entryX=0.446;entryY=0.993;entryDx=0;entryDy=0;entryPerimeter=0;" edge="1" parent="1" source="2rcn7Dy2VV2zYY0n1cLn-10" target="W9CftdfS8jbNJxEW55Y1-4">
                    <mxGeometry x="-1" y="3" relative="1" as="geometry">
                        <mxPoint x="143.6199999999999" y="116.29999999999995" as="sourcePoint"/>
                        <mxPoint y="73" as="targetPoint"/>
                    </mxGeometry>
                </mxCell>
            </root>
        </mxGraphModel>
    </diagram>
</mxfile>